<?xml version="1.0" encoding="UTF-8" standalone="no"?>
<!-- Created with Inkscape (http://www.inkscape.org/) -->

<svg
   width="1000"
   height="1000"
   viewBox="0 0 264.58333 264.58333"
   version="1.1"
   id="svg1"
   xml:space="preserve"
   xmlns="http://www.w3.org/2000/svg"
   xmlns:svg="http://www.w3.org/2000/svg"><defs
     id="defs1" /><g
     id="layer1"><rect
       style="fill:#ffffff;fill-opacity:1;stroke-width:0.264583"
       id="rect1"
       width="90.085312"
       height="84.173462"
       x="98.530807"
       y="88.114693" /><path
       style="fill:#ff0f1c;fill-opacity:1"
       d="M 77.74556,199.94724 C 60.564609,199.54833 57.830152,199.32241 52.874109,197.89235 37.699158,193.51363 31.928154,185.77539 29.729337,166.85792 28.48796,156.17776 28.481741,108.9793 29.720337,98.426504 31.923298,79.657105 37.677411,71.839088 52.502909,67.472206 c 4.620847,-1.36108 7.748643,-1.598255 28.212393,-2.1393 29.431028,-0.778133 74.609978,-0.780873 103.569168,-0.0063 21.29245,0.569524 22.99871,0.712736 28.58361,2.399115 14.1012,4.257902 20.02183,12.624613 22.04213,31.148758 1.16289,10.662571 1.17375,56.001031 0.0161,67.144851 -1.95483,18.81747 -7.84998,27.24691 -22.05822,31.54092 -5.60238,1.69315 -7.24558,1.82921 -28.95482,2.39739 -25.76311,0.67429 -76.89305,0.66926 -106.167684,-0.0104 z m 46.40196,-38.79038 c 3.06253,-1.66324 11.24784,-6.12914 18.18957,-9.92422 6.94174,-3.79508 16.35985,-8.90681 20.92914,-11.3594 12.13562,-6.51386 12.14895,-7.97196 0.13179,-14.41919 -4.49005,-2.40892 -9.06103,-4.88377 -10.15774,-5.49966 -1.09671,-0.61589 -5.502,-3.02003 -9.78954,-5.34253 -4.28754,-2.3225 -11.63761,-6.31265 -16.33349,-8.86701 -4.69588,-2.55436 -9.17984,-4.64597 -9.96437,-4.64803 -0.78452,-0.002 -2.03737,0.51838 -2.78411,1.15654 -1.2738,1.08859 -1.35772,2.95929 -1.35772,30.26704 0,26.10026 0.12692,29.23916 1.22872,30.38885 1.84037,1.92035 3.77527,1.57813 9.90775,-1.75239 z"
       id="path1" /></g></svg>
